# xmcd CD database file
#
# Track frame offsets:
#	150
#	15242
#	34875
#	55110
#	73005
#	87842
#	107412
#	127002
#	138090
#	157890
#	179392
#
# Disc length: 2642 seconds
#
# Revision: 0
# Processed by: cddbd v1.5PL3 Copyright (c) Steve Scherf et al.
# Submitted via: CDex 1.51
#
DISCID=830a500b
DTITLE=水戸華之介&3-10 Chain - Hello...
DYEAR=1900
DGENRE=JPop
TTITLE0=Hello! Hello!
TTITLE1=Romanticが止まらない
TTITLE2=犬と夕暮れ
TTITLE3=東京ガーデン
TTITLE4=Spin Spin
TTITLE5=明日への誓い
TTITLE6=マーマレイド
TTITLE7=A Go Go
TTITLE8=・・A
TTITLE9=天国ホテル
TTITLE10=風になっちゃった
EXTD=
EXTT0=
EXTT1=
EXTT2=
EXTT3=
EXTT4=
EXTT5=
EXTT6=
EXTT7=
EXTT8=
EXTT9=
EXTT10=
PLAYORDER=
